<?xml version="1.0" encoding="utf-8"?>
<!-- Generator: Adobe Illustrator 17.1.0, SVG Export Plug-In . SVG Version: 6.00 Build 0)  -->
<!DOCTYPE svg PUBLIC "-//W3C//DTD SVG 1.1//EN" "http://www.w3.org/Graphics/SVG/1.1/DTD/svg11.dtd">
<svg version="1.1" id="Layer_1" xmlns="http://www.w3.org/2000/svg" xmlns:xlink="http://www.w3.org/1999/xlink" x="0px" y="0px"
	 viewBox="0 0 120 120" enable-background="new 0 0 120 120" xml:space="preserve">
<g>
	
		<ellipse transform="matrix(-0.4338 0.901 -0.901 -0.4338 121.867 127.0845)" fill="#27AAE1" stroke="#176988" stroke-miterlimit="10" cx="21.001" cy="101.835" rx="2.156" ry="1.938"/>
	
		<ellipse transform="matrix(-0.8543 0.5198 -0.5198 -0.8543 96.4786 166.6604)" fill="#27AAE1" stroke="#176988" stroke-miterlimit="10" cx="24.879" cy="96.853" rx="2.156" ry="1.938"/>
	
		<ellipse transform="matrix(-0.9984 0.0572 -0.0572 -0.9984 66.6956 186.4231)" fill="#27AAE1" stroke="#176988" stroke-miterlimit="10" cx="30.681" cy="94.166" rx="2.156" ry="1.938"/>
	<path fill="#009444" stroke="#0C351C" stroke-miterlimit="10" d="M44.399,105.464c0-5.625-5.251-10.185-11.728-10.185
		c-6.439,0-11.661,4.507-11.723,10.087c-1.159,1.285-2.407,0.734-2.988,0.352c-1.032-0.88-1.659-1.701-1.845-2.299
		c-0.493-1.582-2.175-2.462-3.756-1.972c-1.582,0.493-2.465,2.175-1.972,3.756c1.24,3.98,5.619,6.725,8.119,8.007
		c3.097,1.587,7.252,2.954,11.116,2.954c1.342,0,2.645-0.172,3.859-0.55C39.579,115.251,44.399,110.852,44.399,105.464z"/>
	
		<ellipse transform="matrix(0.9452 0.3265 -0.3265 0.9452 39.3621 -1.0305)" fill="#009444" stroke="#0C351C" stroke-miterlimit="10" cx="22.751" cy="116.747" rx="3.75" ry="3.188"/>
	
		<ellipse transform="matrix(0.8993 -0.4373 0.4373 0.8993 -47.174 28.2042)" fill="#009444" stroke="#0C351C" stroke-miterlimit="10" cx="37.67" cy="116.56" rx="3.75" ry="3.188"/>
	<ellipse fill="#009444" cx="23.663" cy="113.872" rx="2.662" ry="2.687"/>
	<ellipse fill="#009444" cx="36.538" cy="113.872" rx="2.662" ry="2.687"/>
	<path fill="#009444" stroke="#0C351C" stroke-linecap="round" stroke-miterlimit="10" d="M34.626,109.31l1-1l1.625,1l0.419-1.75
		l1.53,0.875l1.364-1.812l1.438,0.625l0.5-2.062l1.5,0.536l1.25-2.724c0,0,0.442,8.349-4.342,9.706"/>
	<circle fill="#FFFFFF" cx="33.876" cy="102.709" r="3.49"/>
	<circle fill="#0C351C" cx="35.926" cy="102.448" r="1.612"/>
</g>
<g>
	<g>
		
			<ellipse transform="matrix(-0.5627 0.8267 -0.8267 -0.5627 206.9384 91.3224)" fill="#27AAE1" stroke="#176988" stroke-miterlimit="10" cx="79.315" cy="100.396" rx="2.156" ry="1.938"/>
		
			<ellipse transform="matrix(-0.922 0.3872 -0.3872 -0.922 198.4263 152.1095)" fill="#27AAE1" stroke="#176988" stroke-miterlimit="10" cx="83.889" cy="96.045" rx="2.156" ry="1.938"/>
		
			<ellipse transform="matrix(-0.9958 -0.0916 0.0916 -0.9958 171.0343 196.3504)" fill="#27AAE1" stroke="#176988" stroke-miterlimit="10" cx="90.025" cy="94.248" rx="2.156" ry="1.938"/>
		<path fill="#009444" stroke="#0C351C" stroke-miterlimit="10" d="M101.915,107.458c0.835-5.563-3.681-10.852-10.087-11.813
			c-6.368-0.956-12.201,2.726-13.09,8.235c-1.337,1.098-2.489,0.368-3.007-0.096c-0.89-1.023-1.388-1.928-1.483-2.548
			c-0.252-1.637-1.786-2.758-3.422-2.508c-1.638,0.252-2.76,1.785-2.508,3.422c0.635,4.12,4.559,7.485,6.841,9.124
			c2.827,2.029,6.734,3.998,10.554,4.571c1.327,0.199,2.641,0.223,3.898,0.029C95.695,116.42,101.115,112.786,101.915,107.458z"/>
		<path fill="#009444" stroke="#0C351C" stroke-linecap="round" stroke-miterlimit="10" d="M91.679,109.81l1.137-0.84l1.459,1.23
			l0.674-1.668l1.383,1.092l1.618-1.59l1.329,0.831l0.801-1.965l1.404,0.753l1.64-2.508c0,0-0.802,8.322-5.734,8.954"/>
		<circle fill="#FFFFFF" cx="91.917" cy="103.171" r="3.49"/>
		<circle fill="#0C351C" cx="93.983" cy="103.217" r="1.612"/>
	</g>
	<g>
		
			<ellipse transform="matrix(0.9876 -0.157 0.157 0.9876 -17.2876 14.7122)" fill="#009444" stroke="#0C351C" stroke-miterlimit="10" cx="84.493" cy="116.797" rx="3.75" ry="3.188"/>
		
			<ellipse transform="matrix(0.8822 -0.4708 0.4708 0.8822 -43.7073 52.9276)" fill="#009444" cx="83.944" cy="113.831" rx="2.662" ry="2.687"/>
	</g>
	<g>
		
			<ellipse transform="matrix(0.9981 0.0614 -0.0614 0.9981 7.3348 -5.5282)" fill="#009444" stroke="#0C351C" stroke-miterlimit="10" cx="93.649" cy="116.623" rx="3.75" ry="3.188"/>
		
			<ellipse transform="matrix(0.8708 0.4916 -0.4916 0.8708 68.0532 -31.5123)" fill="#009444" cx="93.984" cy="113.726" rx="2.662" ry="2.687"/>
	</g>
</g>
<circle fill="#FFF200" stroke="#ED1C24" stroke-miterlimit="10" cx="30.627" cy="45.066" r="14.5"/>
</svg>
